<svg xmlns="http://www.w3.org/2000/svg" width="50" height="50">
  <path d="M50.00,25.00L49.25,25.05L48.49,25.10L47.74,25.16L46.99,25.21L46.24,25.26L45.48,25.31L44.73,25.37L43.98,25.42L43.23,25.47L42.47,25.52L41.72,25.57L40.97,25.63L40.21,25.68L39.46,25.73L38.71,25.78L37.96,25.84L37.20,25.89L36.45,25.94L35.70,25.99L34.95,26.05L35.67,26.25L36.40,26.46L37.12,26.67L37.85,26.88L38.57,27.08L39.30,27.29L40.02,27.50L40.75,27.71L41.47,27.91L42.20,28.12L42.92,28.33L43.65,28.54L44.38,28.74L45.10,28.95L45.83,29.16L46.55,29.37L47.28,29.57L48.00,29.78L48.73,29.99L49.45,30.20L48.71,30.09L47.96,29.99L47.21,29.88L46.47,29.78L45.72,29.67L44.97,29.57L44.22,29.46L43.48,29.35L42.73,29.25L41.98,29.14L41.23,29.04L40.49,28.93L39.74,28.83L38.99,28.72L38.25,28.62L37.50,28.51L36.75,28.41L36.00,28.30L35.26,28.20L34.51,28.09L35.18,28.44L35.84,28.80L36.51,29.15L37.18,29.51L37.84,29.86L38.51,30.21L39.18,30.57L39.84,30.92L40.51,31.28L41.17,31.63L41.84,31.98L42.51,32.34L43.17,32.69L43.84,33.04L44.51,33.40L45.17,33.75L45.84,34.11L46.51,34.46L47.17,34.81L47.84,35.17L47.13,34.91L46.42,34.65L45.71,34.39L45.00,34.13L44.29,33.88L43.59,33.62L42.88,33.36L42.17,33.10L41.46,32.84L40.75,32.58L40.04,32.33L39.33,32.07L38.62,31.81L37.91,31.55L37.20,31.29L36.50,31.03L35.79,30.78L35.08,30.52L34.37,30.26L33.66,30.00L34.24,30.48L34.82,30.97L35.40,31.45L35.97,31.94L36.55,32.42L37.13,32.91L37.71,33.39L38.29,33.88L38.86,34.36L39.44,34.85L40.02,35.33L40.60,35.82L41.18,36.30L41.76,36.79L42.33,37.27L42.91,37.76L43.49,38.24L44.07,38.73L44.65,39.21L45.23,39.69L44.59,39.29L43.95,38.89L43.31,38.49L42.67,38.09L42.03,37.69L41.39,37.29L40.75,36.89L40.11,36.49L39.47,36.09L38.83,35.69L38.19,35.29L37.55,34.89L36.91,34.49L36.27,34.09L35.63,33.69L34.99,33.29L34.35,32.89L33.71,32.49L33.07,32.09L32.43,31.69L32.90,32.29L33.36,32.88L33.83,33.47L34.29,34.07L34.76,34.66L35.22,35.26L35.69,35.85L36.15,36.45L36.62,37.04L37.08,37.63L37.54,38.23L38.01,38.82L38.47,39.42L38.94,40.01L39.40,40.61L39.87,41.20L40.33,41.80L40.80,42.39L41.26,42.98L41.73,43.58L41.19,43.05L40.64,42.53L40.10,42.01L39.56,41.48L39.02,40.96L38.47,40.43L37.93,39.91L37.39,39.38L36.85,38.86L36.30,38.33L35.76,37.81L35.22,37.29L34.68,36.76L34.13,36.24L33.59,35.71L33.05,35.19L32.51,34.66L31.96,34.14L31.42,33.61L30.88,33.09L31.21,33.77L31.54,34.45L31.87,35.12L32.20,35.80L32.53,36.48L32.86,37.16L33.20,37.84L33.53,38.51L33.86,39.19L34.19,39.87L34.52,40.55L34.85,41.23L35.18,41.90L35.51,42.58L35.84,43.26L36.18,43.94L36.51,44.62L36.84,45.29L37.17,45.97L37.50,46.65L37.08,46.02L36.66,45.40L36.24,44.77L35.81,44.15L35.39,43.52L34.97,42.90L34.55,42.27L34.13,41.64L33.71,41.02L33.28,40.39L32.86,39.77L32.44,39.14L32.02,38.52L31.60,37.89L31.18,37.26L30.75,36.64L30.33,36.01L29.91,35.39L29.49,34.76L29.07,34.14L29.25,34.87L29.43,35.60L29.62,36.33L29.80,37.06L29.98,37.80L30.16,38.53L30.35,39.26L30.53,39.99L30.71,40.72L30.90,41.46L31.08,42.19L31.26,42.92L31.45,43.65L31.63,44.38L31.81,45.12L31.99,45.85L32.18,46.58L32.36,47.31L32.54,48.04L32.73,48.78L32.44,48.08L32.16,47.38L31.88,46.68L31.60,45.98L31.31,45.28L31.03,44.58L30.75,43.88L30.47,43.18L30.18,42.48L29.90,41.78L29.62,41.08L29.34,40.38L29.06,39.68L28.77,38.98L28.49,38.28L28.21,37.58L27.93,36.88L27.64,36.18L27.36,35.48L27.08,34.78L27.11,35.54L27.13,36.29L27.16,37.04L27.19,37.80L27.21,38.55L27.24,39.31L27.27,40.06L27.29,40.81L27.32,41.57L27.35,42.32L27.37,43.08L27.40,43.83L27.43,44.58L27.45,45.34L27.48,46.09L27.51,46.85L27.53,47.60L27.56,48.35L27.59,49.11L27.61,49.86L27.48,49.12L27.35,48.38L27.22,47.63L27.09,46.89L26.96,46.15L26.83,45.40L26.70,44.66L26.57,43.92L26.44,43.17L26.31,42.43L26.18,41.69L26.05,40.95L25.91,40.20L25.78,39.46L25.65,38.72L25.52,37.97L25.39,37.23L25.26,36.49L25.13,35.74L25.00,35.00L24.87,35.74L24.74,36.49L24.61,37.23L24.48,37.97L24.35,38.72L24.22,39.46L24.09,40.20L23.95,40.95L23.82,41.69L23.69,42.43L23.56,43.17L23.43,43.92L23.30,44.66L23.17,45.40L23.04,46.15L22.91,46.89L22.78,47.63L22.65,48.38L22.52,49.12L22.39,49.86L22.41,49.11L22.44,48.35L22.47,47.60L22.49,46.85L22.52,46.09L22.55,45.34L22.57,44.58L22.60,43.83L22.63,43.08L22.65,42.32L22.68,41.57L22.71,40.81L22.73,40.06L22.76,39.31L22.79,38.55L22.81,37.80L22.84,37.04L22.87,36.29L22.89,35.54L22.92,34.78L22.64,35.48L22.36,36.18L22.07,36.88L21.79,37.58L21.51,38.28L21.23,38.98L20.94,39.68L20.66,40.38L20.38,41.08L20.10,41.78L19.82,42.48L19.53,43.18L19.25,43.88L18.97,44.58L18.69,45.28L18.40,45.98L18.12,46.68L17.84,47.38L17.56,48.08L17.27,48.78L17.46,48.04L17.64,47.31L17.82,46.58L18.01,45.85L18.19,45.12L18.37,44.38L18.55,43.65L18.74,42.92L18.92,42.19L19.10,41.46L19.29,40.72L19.47,39.99L19.65,39.26L19.84,38.53L20.02,37.80L20.20,37.06L20.38,36.33L20.57,35.60L20.75,34.87L20.93,34.14L20.51,34.76L20.09,35.39L19.67,36.01L19.25,36.64L18.82,37.26L18.40,37.89L17.98,38.52L17.56,39.14L17.14,39.77L16.72,40.39L16.29,41.02L15.87,41.64L15.45,42.27L15.03,42.90L14.61,43.52L14.19,44.15L13.76,44.77L13.34,45.40L12.92,46.02L12.50,46.65L12.83,45.97L13.16,45.29L13.49,44.62L13.82,43.94L14.16,43.26L14.49,42.58L14.82,41.90L15.15,41.23L15.48,40.55L15.81,39.87L16.14,39.19L16.47,38.51L16.80,37.84L17.14,37.16L17.47,36.48L17.80,35.80L18.13,35.12L18.46,34.45L18.79,33.77L19.12,33.09L18.58,33.61L18.04,34.14L17.49,34.66L16.95,35.19L16.41,35.71L15.87,36.24L15.32,36.76L14.78,37.29L14.24,37.81L13.70,38.33L13.15,38.86L12.61,39.38L12.07,39.91L11.53,40.43L10.98,40.96L10.44,41.48L9.90,42.01L9.36,42.53L8.81,43.05L8.27,43.58L8.74,42.98L9.20,42.39L9.67,41.80L10.13,41.20L10.60,40.61L11.06,40.01L11.53,39.42L11.99,38.82L12.46,38.23L12.92,37.63L13.38,37.04L13.85,36.45L14.31,35.85L14.78,35.26L15.24,34.66L15.71,34.07L16.17,33.47L16.64,32.88L17.10,32.29L17.57,31.69L16.93,32.09L16.29,32.49L15.65,32.89L15.01,33.29L14.37,33.69L13.73,34.09L13.09,34.49L12.45,34.89L11.81,35.29L11.17,35.69L10.53,36.09L9.89,36.49L9.25,36.89L8.61,37.29L7.97,37.69L7.33,38.09L6.69,38.49L6.05,38.89L5.41,39.29L4.77,39.69L5.35,39.21L5.93,38.73L6.51,38.24L7.09,37.76L7.67,37.27L8.24,36.79L8.82,36.30L9.40,35.82L9.98,35.33L10.56,34.85L11.14,34.36L11.71,33.88L12.29,33.39L12.87,32.91L13.45,32.42L14.03,31.94L14.60,31.45L15.18,30.97L15.76,30.48L16.34,30.00L15.63,30.26L14.92,30.52L14.21,30.78L13.50,31.03L12.80,31.29L12.09,31.55L11.38,31.81L10.67,32.07L9.96,32.33L9.25,32.58L8.54,32.84L7.83,33.10L7.12,33.36L6.41,33.62L5.71,33.88L5.00,34.13L4.29,34.39L3.58,34.65L2.87,34.91L2.16,35.17L2.83,34.81L3.49,34.46L4.16,34.11L4.83,33.75L5.49,33.40L6.16,33.04L6.83,32.69L7.49,32.34L8.16,31.98L8.83,31.63L9.49,31.28L10.16,30.92L10.82,30.57L11.49,30.21L12.16,29.86L12.82,29.51L13.49,29.15L14.16,28.80L14.82,28.44L15.49,28.09L14.74,28.20L14.00,28.30L13.25,28.41L12.50,28.51L11.75,28.62L11.01,28.72L10.26,28.83L9.51,28.93L8.77,29.04L8.02,29.14L7.27,29.25L6.52,29.35L5.78,29.46L5.03,29.57L4.28,29.67L3.53,29.78L2.79,29.88L2.04,29.99L1.29,30.09L0.55,30.20L1.27,29.99L2.00,29.78L2.72,29.57L3.45,29.37L4.17,29.16L4.90,28.95L5.62,28.74L6.35,28.54L7.08,28.33L7.80,28.12L8.53,27.91L9.25,27.71L9.98,27.50L10.70,27.29L11.43,27.08L12.15,26.88L12.88,26.67L13.60,26.46L14.33,26.25L15.05,26.05L14.30,25.99L13.55,25.94L12.80,25.89L12.04,25.84L11.29,25.78L10.54,25.73L9.79,25.68L9.03,25.63L8.28,25.57L7.53,25.52L6.77,25.47L6.02,25.42L5.27,25.37L4.52,25.31L3.76,25.26L3.01,25.21L2.26,25.16L1.51,25.10L0.75,25.05L0.00,25.00L0.75,24.95L1.51,24.90L2.26,24.84L3.01,24.79L3.76,24.74L4.52,24.69L5.27,24.63L6.02,24.58L6.77,24.53L7.53,24.48L8.28,24.43L9.03,24.37L9.79,24.32L10.54,24.27L11.29,24.22L12.04,24.16L12.80,24.11L13.55,24.06L14.30,24.01L15.05,23.95L14.33,23.75L13.60,23.54L12.88,23.33L12.15,23.12L11.43,22.92L10.70,22.71L9.98,22.50L9.25,22.29L8.53,22.09L7.80,21.88L7.08,21.67L6.35,21.46L5.62,21.26L4.90,21.05L4.17,20.84L3.45,20.63L2.72,20.43L2.00,20.22L1.27,20.01L0.55,19.80L1.29,19.91L2.04,20.01L2.79,20.12L3.53,20.22L4.28,20.33L5.03,20.43L5.78,20.54L6.52,20.65L7.27,20.75L8.02,20.86L8.77,20.96L9.51,21.07L10.26,21.17L11.01,21.28L11.75,21.38L12.50,21.49L13.25,21.59L14.00,21.70L14.74,21.80L15.49,21.91L14.82,21.56L14.16,21.20L13.49,20.85L12.82,20.49L12.16,20.14L11.49,19.79L10.82,19.43L10.16,19.08L9.49,18.72L8.83,18.37L8.16,18.02L7.49,17.66L6.83,17.31L6.16,16.96L5.49,16.60L4.83,16.25L4.16,15.89L3.49,15.54L2.83,15.19L2.16,14.83L2.87,15.09L3.58,15.35L4.29,15.61L5.00,15.87L5.71,16.12L6.41,16.38L7.12,16.64L7.83,16.90L8.54,17.16L9.25,17.42L9.96,17.67L10.67,17.93L11.38,18.19L12.09,18.45L12.80,18.71L13.50,18.97L14.21,19.22L14.92,19.48L15.63,19.74L16.34,20.00L15.76,19.52L15.18,19.03L14.60,18.55L14.03,18.06L13.45,17.58L12.87,17.09L12.29,16.61L11.71,16.12L11.14,15.64L10.56,15.15L9.98,14.67L9.40,14.18L8.82,13.70L8.24,13.21L7.67,12.73L7.09,12.24L6.51,11.76L5.93,11.27L5.35,10.79L4.77,10.31L5.41,10.71L6.05,11.11L6.69,11.51L7.33,11.91L7.97,12.31L8.61,12.71L9.25,13.11L9.89,13.51L10.53,13.91L11.17,14.31L11.81,14.71L12.45,15.11L13.09,15.51L13.73,15.91L14.37,16.31L15.01,16.71L15.65,17.11L16.29,17.51L16.93,17.91L17.57,18.31L17.10,17.71L16.64,17.12L16.17,16.53L15.71,15.93L15.24,15.34L14.78,14.74L14.31,14.15L13.85,13.55L13.38,12.96L12.92,12.37L12.46,11.77L11.99,11.18L11.53,10.58L11.06,9.99L10.60,9.39L10.13,8.80L9.67,8.20L9.20,7.61L8.74,7.02L8.27,6.42L8.81,6.95L9.36,7.47L9.90,7.99L10.44,8.52L10.98,9.04L11.53,9.57L12.07,10.09L12.61,10.62L13.15,11.14L13.70,11.67L14.24,12.19L14.78,12.71L15.32,13.24L15.87,13.76L16.41,14.29L16.95,14.81L17.49,15.34L18.04,15.86L18.58,16.39L19.12,16.91L18.79,16.23L18.46,15.55L18.13,14.88L17.80,14.20L17.47,13.52L17.14,12.84L16.80,12.16L16.47,11.49L16.14,10.81L15.81,10.13L15.48,9.45L15.15,8.77L14.82,8.10L14.49,7.42L14.16,6.74L13.82,6.06L13.49,5.38L13.16,4.71L12.83,4.03L12.50,3.35L12.92,3.98L13.34,4.60L13.76,5.23L14.19,5.85L14.61,6.48L15.03,7.10L15.45,7.73L15.87,8.36L16.29,8.98L16.72,9.61L17.14,10.23L17.56,10.86L17.98,11.48L18.40,12.11L18.82,12.74L19.25,13.36L19.67,13.99L20.09,14.61L20.51,15.24L20.93,15.86L20.75,15.13L20.57,14.40L20.38,13.67L20.20,12.94L20.02,12.20L19.84,11.47L19.65,10.74L19.47,10.01L19.29,9.28L19.10,8.54L18.92,7.81L18.74,7.08L18.55,6.35L18.37,5.62L18.19,4.88L18.01,4.15L17.82,3.42L17.64,2.69L17.46,1.96L17.27,1.22L17.56,1.92L17.84,2.62L18.12,3.32L18.40,4.02L18.69,4.72L18.97,5.42L19.25,6.12L19.53,6.82L19.82,7.52L20.10,8.22L20.38,8.92L20.66,9.62L20.94,10.32L21.23,11.02L21.51,11.72L21.79,12.42L22.07,13.12L22.36,13.82L22.64,14.52L22.92,15.22L22.89,14.46L22.87,13.71L22.84,12.96L22.81,12.20L22.79,11.45L22.76,10.69L22.73,9.94L22.71,9.19L22.68,8.43L22.65,7.68L22.63,6.92L22.60,6.17L22.57,5.42L22.55,4.66L22.52,3.91L22.49,3.15L22.47,2.40L22.44,1.65L22.41,0.89L22.39,0.14L22.52,0.88L22.65,1.62L22.78,2.37L22.91,3.11L23.04,3.85L23.17,4.60L23.30,5.34L23.43,6.08L23.56,6.83L23.69,7.57L23.82,8.31L23.95,9.05L24.09,9.80L24.22,10.54L24.35,11.28L24.48,12.03L24.61,12.77L24.74,13.51L24.87,14.26L25.00,15.00L25.13,14.26L25.26,13.51L25.39,12.77L25.52,12.03L25.65,11.28L25.78,10.54L25.91,9.80L26.05,9.05L26.18,8.31L26.31,7.57L26.44,6.83L26.57,6.08L26.70,5.34L26.83,4.60L26.96,3.85L27.09,3.11L27.22,2.37L27.35,1.62L27.48,0.88L27.61,0.14L27.59,0.89L27.56,1.65L27.53,2.40L27.51,3.15L27.48,3.91L27.45,4.66L27.43,5.42L27.40,6.17L27.37,6.92L27.35,7.68L27.32,8.43L27.29,9.19L27.27,9.94L27.24,10.69L27.21,11.45L27.19,12.20L27.16,12.96L27.13,13.71L27.11,14.46L27.08,15.22L27.36,14.52L27.64,13.82L27.93,13.12L28.21,12.42L28.49,11.72L28.77,11.02L29.06,10.32L29.34,9.62L29.62,8.92L29.90,8.22L30.18,7.52L30.47,6.82L30.75,6.12L31.03,5.42L31.31,4.72L31.60,4.02L31.88,3.32L32.16,2.62L32.44,1.92L32.73,1.22L32.54,1.96L32.36,2.69L32.18,3.42L31.99,4.15L31.81,4.88L31.63,5.62L31.45,6.35L31.26,7.08L31.08,7.81L30.90,8.54L30.71,9.28L30.53,10.01L30.35,10.74L30.16,11.47L29.98,12.20L29.80,12.94L29.62,13.67L29.43,14.40L29.25,15.13L29.07,15.86L29.49,15.24L29.91,14.61L30.33,13.99L30.75,13.36L31.18,12.74L31.60,12.11L32.02,11.48L32.44,10.86L32.86,10.23L33.28,9.61L33.71,8.98L34.13,8.36L34.55,7.73L34.97,7.10L35.39,6.48L35.81,5.85L36.24,5.23L36.66,4.60L37.08,3.98L37.50,3.35L37.17,4.03L36.84,4.71L36.51,5.38L36.18,6.06L35.84,6.74L35.51,7.42L35.18,8.10L34.85,8.77L34.52,9.45L34.19,10.13L33.86,10.81L33.53,11.49L33.20,12.16L32.86,12.84L32.53,13.52L32.20,14.20L31.87,14.88L31.54,15.55L31.21,16.23L30.88,16.91L31.42,16.39L31.96,15.86L32.51,15.34L33.05,14.81L33.59,14.29L34.13,13.76L34.68,13.24L35.22,12.71L35.76,12.19L36.30,11.67L36.85,11.14L37.39,10.62L37.93,10.09L38.47,9.57L39.02,9.04L39.56,8.52L40.10,7.99L40.64,7.47L41.19,6.95L41.73,6.42L41.26,7.02L40.80,7.61L40.33,8.20L39.87,8.80L39.40,9.39L38.94,9.99L38.47,10.58L38.01,11.18L37.54,11.77L37.08,12.37L36.62,12.96L36.15,13.55L35.69,14.15L35.22,14.74L34.76,15.34L34.29,15.93L33.83,16.53L33.36,17.12L32.90,17.71L32.43,18.31L33.07,17.91L33.71,17.51L34.35,17.11L34.99,16.71L35.63,16.31L36.27,15.91L36.91,15.51L37.55,15.11L38.19,14.71L38.83,14.31L39.47,13.91L40.11,13.51L40.75,13.11L41.39,12.71L42.03,12.31L42.67,11.91L43.31,11.51L43.95,11.11L44.59,10.71L45.23,10.31L44.65,10.79L44.07,11.27L43.49,11.76L42.91,12.24L42.33,12.73L41.76,13.21L41.18,13.70L40.60,14.18L40.02,14.67L39.44,15.15L38.86,15.64L38.29,16.12L37.71,16.61L37.13,17.09L36.55,17.58L35.97,18.06L35.40,18.55L34.82,19.03L34.24,19.52L33.66,20.00L34.37,19.74L35.08,19.48L35.79,19.22L36.50,18.97L37.20,18.71L37.91,18.45L38.62,18.19L39.33,17.93L40.04,17.67L40.75,17.42L41.46,17.16L42.17,16.90L42.88,16.64L43.59,16.38L44.29,16.12L45.00,15.87L45.71,15.61L46.42,15.35L47.13,15.09L47.84,14.83L47.17,15.19L46.51,15.54L45.84,15.89L45.17,16.25L44.51,16.60L43.84,16.96L43.17,17.31L42.51,17.66L41.84,18.02L41.17,18.37L40.51,18.72L39.84,19.08L39.18,19.43L38.51,19.79L37.84,20.14L37.18,20.49L36.51,20.85L35.84,21.20L35.18,21.56L34.51,21.91L35.26,21.80L36.00,21.70L36.75,21.59L37.50,21.49L38.25,21.38L38.99,21.28L39.74,21.17L40.49,21.07L41.23,20.96L41.98,20.86L42.73,20.75L43.48,20.65L44.22,20.54L44.97,20.43L45.72,20.33L46.47,20.22L47.21,20.12L47.96,20.01L48.71,19.91L49.45,19.80L48.73,20.01L48.00,20.22L47.28,20.43L46.55,20.63L45.83,20.84L45.10,21.05L44.38,21.26L43.65,21.46L42.92,21.67L42.20,21.88L41.47,22.09L40.75,22.29L40.02,22.50L39.30,22.71L38.57,22.92L37.85,23.12L37.12,23.33L36.40,23.54L35.67,23.75L34.95,23.95Z" fill="black" />
</svg>
